<?xml version="1.0" standalone="no"?>
<!DOCTYPE svg PUBLIC "-//W3C//DTD SVG 20010904//EN"
 "http://www.w3.org/TR/2001/REC-SVG-20010904/DTD/svg10.dtd">
<svg version="1.0" xmlns="http://www.w3.org/2000/svg"
 width="225.000000pt" height="225.000000pt" viewBox="0 0 225.000000 225.000000"
 preserveAspectRatio="xMidYMid meet">

<g transform="translate(0.000000,225.000000) scale(0.100000,-0.100000)"
fill="#000000" stroke="none">
<path d="M0 1125 l0 -1125 1125 0 1125 0 0 1125 0 1125 -1125 0 -1125 0 0
-1125z m1010 308 c23 -60 60 -155 83 -213 37 -96 41 -103 51 -80 6 13 47 108
91 210 l80 185 123 3 c67 1 122 -1 122 -5 0 -4 -29 -68 -64 -143 -35 -74 -116
-245 -180 -380 -122 -259 -151 -300 -218 -314 -17 -3 -88 -6 -159 -6 l-129 0
0 80 0 80 98 0 c89 0 100 2 119 23 18 19 43 60 43 69 0 2 -19 3 -42 3 l-41 0
-133 298 -132 297 123 0 122 0 43 -107z"/>
</g>
</svg>
